<svg width="21" height="19" viewBox="0 0 21 19" fill="none" xmlns="http://www.w3.org/2000/svg">
<g clip-path="url(#clip0_112_62)">
<path d="M4.2082 18.3358L5.61914 11.8788L0.246094 7.44048L7.46895 6.66118L10.4713 0.664307L13.5229 6.63892L20.7539 7.36997L15.4178 11.8454L16.882 18.2913L10.5328 15.0813L4.2082 18.3358Z" fill="#FFD759"/>
<path d="M10.5 9.5L0.246094 7.44043L5.61914 11.8787L10.5 9.5Z" fill="#FABD3B"/>
<path d="M10.7918 9.88L4.5 18.7157L10.8246 15.4613L17.1738 18.6712L10.7918 9.88Z" fill="#FABD3B"/>
<path d="M10.5 9.49995L20.7539 7.36987L15.4178 11.8453L10.5 9.49995Z" fill="#FABD3B"/>
<path d="M10.4713 0.664307L10.5 9.50005L13.5229 6.63892L10.4713 0.664307Z" fill="#FABD3B"/>
</g>
<defs>
<clipPath id="clip0_112_62">
<rect width="21" height="19" fill="white"/>
</clipPath>
</defs>
</svg>
